<svg width="240" height="39" viewBox="0 0 240 39" fill="none" xmlns="http://www.w3.org/2000/svg">
<g clip-path="url(#clip0_9_5)">
<path d="M27.967 0.879005C20.242 0.875005 12.182 2.61501 4.04702 4.872C3.01402 5.08 2.00602 5.756 1.47302 6.592C0.983022 7.38 0.805022 8.171 0.652022 9C-0.137978 13.428 -0.0419776 17.776 0.122022 22.594C0.158022 23.697 0.322022 25.004 0.837022 25.799C1.37502 26.602 2.29702 27.112 3.39802 27.279C4.80463 27.4853 6.21564 27.6604 7.63002 27.804L7.31802 36.502C7.27002 37.194 7.60802 37.769 8.02802 38.1C8.40402 38.386 8.82302 38.513 9.25302 38.545C10.113 38.61 11.122 38.242 11.623 37.288C13.818 33.064 15.195 31.199 17.94 28.393C25.098 28.569 31.347 28.171 38.422 27.648C40.923 27.583 42.64 25.538 43.094 23.905C44.451 19.673 44.662 14.449 44.806 9.168C44.867 7.07501 44.141 5.02 42.856 3.934C41.634 2.943 40.154 2.584 38.798 2.216C35.031 1.363 31.263 0.905005 27.967 0.879005ZM38.257 4.189C39.615 4.558 40.812 4.913 41.567 5.526C42.827 6.865 42.785 7.756 42.767 9.201C42.625 14.323 42.379 19.294 41.223 23.061C40.725 24.466 39.857 25.466 38.217 25.617C31.009 26.15 24.755 26.562 17.51 26.356C17.369 26.3515 17.2285 26.376 17.0972 26.4279C16.966 26.4799 16.8468 26.5582 16.747 26.658C13.703 29.732 12.146 31.868 9.82602 36.334C9.77202 36.436 9.65502 36.498 9.51102 36.509C9.41402 36.504 9.37502 36.429 9.36902 36.361L9.68302 26.929C9.70202 26.42 9.28202 25.934 8.77602 25.879C7.08414 25.7174 5.39687 25.5107 3.71602 25.259C2.99002 25.148 2.72202 24.949 2.52302 24.653C2.17702 23.828 2.18502 23.318 2.15802 22.525C1.99602 17.75 1.91602 13.577 2.64902 9.425C2.71702 8.811 2.94702 8.183 3.19102 7.658C3.59502 7.026 4.21402 6.933 4.83502 6.761C12.791 4.564 20.575 2.921 27.903 2.916C31.495 3.046 35.267 3.406 38.257 4.189V4.189ZM10.778 12.279C9.68202 13.592 9.79102 15.375 10.638 16.569C11.08 17.194 11.77 17.697 12.61 17.811C13.701 17.901 14.393 17.459 15.14 16.951C16.493 15.775 16.63 13.723 15.601 12.241C15.077 11.486 14.239 11.033 13.383 11.001C12.211 11.013 11.415 11.536 10.778 12.278V12.279ZM22.634 11.207C21.542 11.242 20.659 11.998 20.12 12.814C19.503 13.747 19.143 14.915 19.642 16.06C20.602 18.263 23.919 18.236 25.242 15.997C25.852 14.965 25.696 13.792 25.242 12.941C24.79 12.091 24.106 11.398 23.111 11.239C22.9534 11.2131 22.7937 11.2024 22.634 11.207V11.207ZM32.259 11.414C31.919 11.406 31.569 11.438 31.241 11.525C29.929 11.875 28.812 13.229 28.981 14.962C29.067 15.834 29.468 16.684 30.191 17.27C30.914 17.855 31.964 18.117 33.071 17.89C34.343 17.63 35.131 16.605 35.394 15.615C35.657 14.625 35.591 13.616 34.98 12.798C34.6621 12.3753 34.2518 12.0308 33.7803 11.7909C33.3089 11.5511 32.7889 11.4221 32.26 11.414H32.259ZM13.294 13.037C13.539 13.039 13.732 13.117 13.931 13.403C14.376 14.045 14.252 15.018 13.803 15.408C13.356 15.798 13.077 15.832 12.881 15.806C12.685 15.779 12.486 15.644 12.308 15.392C11.968 14.912 11.868 14.136 12.315 13.582C12.553 13.266 12.99 13.069 13.295 13.037H13.294ZM22.777 13.26C22.815 13.266 23.241 13.513 23.445 13.896C23.649 14.279 23.687 14.635 23.493 14.962C22.916 15.938 21.689 15.674 21.503 15.249C21.433 15.087 21.486 14.436 21.823 13.929C22.158 13.42 22.58 13.229 22.777 13.259V13.26ZM33.341 14.008C33.403 14.091 33.554 14.648 33.437 15.09C33.319 15.532 33.127 15.805 32.657 15.901C32.055 16.025 31.717 15.901 31.464 15.694C31.21 15.489 31.039 15.142 31.002 14.771C30.912 13.851 31.242 13.638 31.766 13.498C32.376 13.348 33.066 13.61 33.341 14.008V14.008Z" fill="#FF52C1"/>
<path d="M59.8096 4.99601C59.8256 4.73601 59.9206 4.50201 60.0966 4.29501C60.1822 4.19353 60.2899 4.11288 60.4113 4.05917C60.5328 4.00546 60.6649 3.9801 60.7976 3.98501H67.6236C67.8536 3.98501 68.0906 4.08101 68.3356 4.27201C68.4504 4.35444 68.5437 4.46321 68.6077 4.58919C68.6718 4.71518 68.7046 4.85469 68.7036 4.99601V15.889H80.1246V4.99601C80.1246 4.72001 80.2206 4.48301 80.4116 4.28401C80.6036 4.08401 80.8516 3.98401 81.1586 3.98401H87.8926C88.1986 3.98401 88.4666 4.06101 88.6966 4.21401C88.9266 4.36801 89.0416 4.61301 89.0416 4.95001V37.1C89.0416 37.437 88.9416 37.69 88.7416 37.858C88.5436 38.027 88.2826 38.111 87.9616 38.111H81.1586C80.8526 38.111 80.6036 38.027 80.4116 37.858C80.2206 37.69 80.1246 37.438 80.1246 37.1V24.047H68.7036V37.1C68.7036 37.422 68.5996 37.67 68.3936 37.847C68.1866 38.023 67.9066 38.111 67.5536 38.111H60.7976C60.1546 38.111 59.8256 37.812 59.8096 37.215V4.99601ZM122.685 37.721C122.486 37.889 122.275 37.996 122.053 38.042C121.845 38.0867 121.634 38.1102 121.422 38.112H117.952C117.676 38.112 117.438 38.062 117.239 37.962C117.039 37.862 116.871 37.728 116.733 37.56C116.591 37.3855 116.476 37.1919 116.389 36.985C116.296 36.7688 116.219 36.5463 116.159 36.319L115.447 33.377C115.217 33.852 114.884 34.392 114.447 34.997C113.974 35.6391 113.413 36.2113 112.781 36.697C112.107 37.227 111.302 37.671 110.368 38.031C109.433 38.391 108.361 38.571 107.15 38.571C105.404 38.571 103.818 38.234 102.393 37.56C100.997 36.9082 99.7562 35.9682 98.7506 34.802C97.7476 33.638 96.9696 32.278 96.4186 30.722C95.8666 29.168 95.5906 27.509 95.5906 25.748V10.695C95.5906 10.113 95.7176 9.67301 95.9706 9.37401C96.2226 9.07501 96.6246 8.92601 97.1766 8.92601H102.485C103.145 8.92601 103.596 9.03601 103.841 9.25901C104.086 9.48101 104.209 9.91401 104.209 10.557V25.517C104.209 26.177 104.359 26.801 104.657 27.391C104.956 27.981 105.35 28.501 105.841 28.953C106.331 29.405 106.886 29.762 107.507 30.022C108.127 30.282 108.759 30.412 109.403 30.412C109.954 30.412 110.525 30.282 111.115 30.022C111.708 29.7587 112.259 29.4059 112.746 28.976C113.244 28.54 113.654 28.026 113.976 27.436C114.298 26.846 114.458 26.222 114.458 25.564V10.626C114.458 10.366 114.508 10.106 114.608 9.84501C114.708 9.58501 114.857 9.38501 115.056 9.24701C115.255 9.12501 115.443 9.04101 115.619 8.99501C115.795 8.94901 115.999 8.92501 116.228 8.92501H121.422C122.08 8.92501 122.555 9.08701 122.846 9.40801C123.137 9.73001 123.283 10.159 123.283 10.695V36.411C123.283 36.701 123.218 36.97 123.088 37.215C122.958 37.46 122.778 37.652 122.548 37.789L122.685 37.721V37.721ZM149.366 34.549C148.952 34.963 148.496 35.407 147.999 35.882C147.501 36.357 146.953 36.802 146.356 37.215C145.755 37.6306 145.107 37.974 144.426 38.238C143.714 38.5102 142.957 38.6465 142.196 38.64C140.113 38.64 138.194 38.25 136.439 37.468C134.728 36.7173 133.188 35.6266 131.912 34.262C130.648 32.906 129.66 31.309 128.948 29.47C128.235 27.632 127.879 25.656 127.879 23.541C127.879 21.411 128.235 19.431 128.948 17.601C129.66 15.771 130.648 14.177 131.912 12.821C133.186 11.4578 134.727 10.3707 136.439 9.62701C138.194 8.85301 140.113 8.46601 142.196 8.46601C143.039 8.46601 143.809 8.58901 144.506 8.83401C145.178 9.06703 145.819 9.3835 146.413 9.77601C146.988 10.159 147.516 10.592 147.999 11.074C148.481 11.557 148.937 12.028 149.366 12.488V1.98501C149.366 1.49501 149.516 1.08201 149.814 0.745014C150.113 0.407014 150.561 0.239014 151.159 0.239014H156.329C156.529 0.239014 156.739 0.281014 156.961 0.365014C157.183 0.450014 157.386 0.568014 157.571 0.722014C157.754 0.875014 157.903 1.05901 158.018 1.27301C158.133 1.48801 158.191 1.72501 158.191 1.98501V36.342C158.191 37.522 157.571 38.112 156.329 38.112H151.825C151.519 38.112 151.281 38.072 151.113 37.996C150.946 37.9211 150.8 37.8069 150.687 37.663C150.559 37.4944 150.454 37.309 150.377 37.112C150.268 36.8526 150.154 36.5958 150.033 36.342L149.366 34.549V34.549ZM136.152 23.541C136.144 24.5074 136.303 25.4679 136.623 26.38C136.937 27.26 137.385 28.023 137.968 28.666C138.556 29.3141 139.272 29.8342 140.07 30.194C140.89 30.57 141.798 30.757 142.794 30.757C143.774 30.757 144.697 30.581 145.563 30.229C146.404 29.8921 147.172 29.3964 147.826 28.769C148.475 28.1407 149.001 27.3966 149.378 26.575C149.768 25.732 149.987 24.828 150.033 23.863V23.541C150.036 22.5793 149.848 21.6266 149.481 20.738C149.124 19.8669 148.606 19.0715 147.953 18.394C147.298 17.7173 146.517 17.1749 145.655 16.797C144.753 16.402 143.778 16.2023 142.794 16.211C141.798 16.211 140.89 16.406 140.07 16.797C139.25 17.187 138.55 17.72 137.968 18.394C137.376 19.0839 136.92 19.8792 136.623 20.738C136.307 21.6386 136.148 22.5867 136.153 23.541H136.152ZM184.872 34.549C184.458 34.963 184.002 35.407 183.504 35.882C183.006 36.357 182.458 36.802 181.861 37.215C181.26 37.6306 180.612 37.974 179.931 38.238C179.219 38.5102 178.462 38.6465 177.701 38.64C175.618 38.64 173.699 38.25 171.945 37.468C170.233 36.7175 168.693 35.6267 167.417 34.262C166.154 32.906 165.165 31.309 164.453 29.47C163.741 27.632 163.384 25.656 163.384 23.541C163.384 21.411 163.741 19.431 164.453 17.601C165.165 15.771 166.153 14.177 167.417 12.821C168.691 11.4576 170.233 10.3705 171.945 9.62701C173.699 8.85301 175.618 8.46601 177.701 8.46601C178.544 8.46601 179.314 8.58901 180.011 8.83401C180.683 9.06703 181.324 9.3835 181.918 9.77601C182.493 10.159 183.021 10.592 183.504 11.074C183.987 11.557 184.442 12.028 184.871 12.488V1.98501C184.871 1.49501 185.021 1.08201 185.319 0.745014C185.619 0.407014 186.066 0.239014 186.664 0.239014H191.834C192.034 0.239014 192.244 0.281014 192.466 0.365014C192.689 0.450014 192.892 0.568014 193.076 0.722014C193.259 0.875014 193.409 1.05901 193.524 1.27301C193.638 1.48801 193.696 1.72501 193.696 1.98501V36.342C193.696 37.522 193.076 38.112 191.834 38.112H187.33C187.024 38.112 186.786 38.072 186.618 37.996C186.451 37.921 186.305 37.8067 186.193 37.663C186.065 37.4944 185.96 37.309 185.883 37.112C185.774 36.8526 185.659 36.5958 185.538 36.342L184.871 34.549H184.872ZM171.657 23.541C171.649 24.5074 171.808 25.4679 172.128 26.38C172.443 27.26 172.891 28.023 173.473 28.666C174.061 29.3142 174.777 29.8343 175.576 30.194C176.396 30.57 177.303 30.757 178.299 30.757C179.279 30.757 180.202 30.581 181.068 30.229C181.909 29.8922 182.678 29.3965 183.332 28.769C183.98 28.1405 184.506 27.3964 184.882 26.575C185.273 25.732 185.492 24.828 185.538 23.863V23.541C185.541 22.5793 185.353 21.6266 184.986 20.738C184.629 19.8669 184.111 19.0715 183.458 18.394C182.803 17.7173 182.022 17.1749 181.16 16.797C180.258 16.402 179.283 16.2023 178.299 16.211C177.303 16.211 176.395 16.406 175.576 16.797C174.756 17.187 174.055 17.72 173.473 18.394C172.881 19.0839 172.425 19.8792 172.128 20.738C171.812 21.6386 171.653 22.5867 171.658 23.541H171.657ZM199.81 2.00801C199.81 1.51801 199.932 1.10501 200.177 0.768014C200.423 0.430014 200.844 0.262014 201.441 0.262014H207.071C207.225 0.262014 207.386 0.304014 207.554 0.388014C207.73 0.478601 207.89 0.599426 208.025 0.745014C208.171 0.898014 208.293 1.08201 208.393 1.29601C208.493 1.51101 208.543 1.74801 208.543 2.00801V36.342C208.543 36.924 208.378 37.364 208.048 37.663C207.719 37.962 207.294 38.111 206.773 38.111H201.441C200.844 38.111 200.423 37.961 200.177 37.663C199.932 37.364 199.81 36.923 199.81 36.342V2.00801ZM238.51 34.618C237.177 35.8489 235.636 36.8332 233.96 37.525C232.261 38.2248 230.441 38.5803 228.605 38.571C226.505 38.571 224.522 38.188 222.653 37.421C220.826 36.6827 219.157 35.6027 217.735 34.239C216.318 32.8728 215.179 31.2456 214.38 29.447C213.552 27.609 213.139 25.61 213.139 23.449C213.139 22.101 213.303 20.795 213.633 19.531C213.951 18.2943 214.422 17.1019 215.035 15.981C215.64 14.8778 216.381 13.8548 217.241 12.936C218.098 12.0156 219.076 11.2154 220.148 10.557C221.238 9.89017 222.413 9.37224 223.641 9.01701C224.932 8.64455 226.271 8.459 227.616 8.46601C228.888 8.46601 230.121 8.63501 231.316 8.97201C232.511 9.30901 233.634 9.78401 234.683 10.396C235.733 11.009 236.693 11.745 237.567 12.603C238.428 13.4467 239.185 14.392 239.819 15.418C240.447 16.4366 240.938 17.5338 241.279 18.681C241.623 19.838 241.796 21.029 241.796 22.254C241.796 23.051 241.784 23.702 241.761 24.208C241.738 24.713 241.619 25.116 241.405 25.414C241.19 25.714 240.835 25.92 240.336 26.034C239.838 26.15 239.106 26.207 238.142 26.207H221.596C221.749 27.187 222.059 28.007 222.526 28.667C222.958 29.2917 223.508 29.826 224.146 30.24C224.759 30.631 225.41 30.91 226.1 31.08C226.738 31.2418 227.394 31.3264 228.053 31.332C228.605 31.332 229.171 31.274 229.753 31.16C230.326 31.0474 230.891 30.8937 231.443 30.7C231.958 30.5207 232.458 30.2976 232.936 30.033C233.388 29.781 233.752 29.516 234.028 29.241C234.273 29.041 234.484 28.892 234.66 28.792C234.836 28.692 235.024 28.643 235.223 28.643C235.423 28.643 235.625 28.713 235.833 28.85C236.084 29.0261 236.319 29.2261 236.533 29.447L238.969 32.205C239.137 32.405 239.245 32.585 239.291 32.745C239.337 32.906 239.36 33.071 239.36 33.239C239.36 33.546 239.275 33.81 239.107 34.032C238.937 34.2553 238.735 34.4527 238.509 34.618H238.51ZM227.456 15.475C226.858 15.475 226.28 15.594 225.721 15.831C225.153 16.0732 224.623 16.3944 224.146 16.785C223.656 17.183 223.216 17.635 222.825 18.141C222.451 18.6181 222.132 19.1345 221.871 19.681H233.614C233.306 19.1049 232.956 18.5517 232.569 18.026C232.2 17.5272 231.767 17.0791 231.282 16.693C230.785 16.3024 230.225 15.9994 229.627 15.797C229.007 15.582 228.283 15.475 227.456 15.475Z" fill="white"/>
</g>
<defs>
<clipPath id="clip0_9_5">
<rect width="240" height="39" fill="white"/>
</clipPath>
</defs>
</svg>
